<svg width="745" height="103" viewBox="0 0 745 103" fill="none" xmlns="http://www.w3.org/2000/svg">
<path d="M30.0718 101.791C26.6083 101.791 25.9811 99.0584 25.8754 98.1711L25.8649 89.5873C26.0833 86.6509 28.0564 85.1018 31.1675 85.2391H49.1543V88.9324H31.0724C29.6032 88.8127 29.5926 89.2035 29.5538 89.7282L29.5574 97.9528C29.6067 97.9951 29.8427 98.1465 30.6425 98.0655L48.9112 98.0584V101.752H30.8258C30.5615 101.776 30.3078 101.791 30.0718 101.791Z" fill="#D5DCB1"/>
<path d="M85.5665 101.192C85.4678 101.192 85.3657 101.189 85.2635 101.185L68.7037 101.189V97.4953H85.3516C86.1725 97.5657 86.317 97.4178 86.4262 96.6925V95.161H72.065C70.3632 95.3229 68.8975 94.9884 67.8828 94.1188C67.2908 93.6083 66.565 92.6647 66.4805 91.0486L66.4769 85.5315H70.1694V90.9465C70.18 91.0768 70.2293 91.2634 70.2927 91.3162C70.4125 91.4253 70.8847 91.5767 71.8853 91.4746L86.4051 91.4711V85.6054H90.1011V96.9777C89.6959 99.7275 88.0188 101.192 85.5665 101.192Z" fill="#D5DCB1"/>
<path d="M128.664 100.869H124.971V97.0666H110.55C107.753 97.1335 105.815 95.6442 105.367 92.7571L105.343 85.8352H109.039V92.4755C109.173 93.1867 109.469 93.4613 110.459 93.3768H124.971V85.9126H128.664V100.869Z" fill="#D5DCB1"/>
<path d="M148.965 101.247L145.755 99.4198L153.802 85.4139C154.683 84.4668 155.571 84.3154 156.188 84.2978C156.776 84.3083 157.65 84.5231 158.464 85.4773L158.679 85.7871C163.506 94.5786 166.194 99.3986 166.194 99.3986L162.967 101.191C162.967 101.191 160.521 96.8003 156.089 88.7516L148.965 101.247Z" fill="#D5DCB1"/>
<path d="M150.482 96.7222L150.464 93.0288L161.521 92.969L161.542 96.6658L150.482 96.7222Z" fill="#D5DCB1"/>
<path d="M185.078 101.791C181.614 101.791 180.987 99.0584 180.885 98.1711L180.867 89.5873C181.089 86.6509 183.034 85.0912 186.177 85.2391H204.16V88.9324H186.078C184.619 88.8303 184.598 89.2035 184.56 89.7282L184.563 97.9528C184.605 97.9951 184.834 98.1429 185.648 98.0655L203.913 98.0584V101.752H185.832C185.564 101.776 185.314 101.791 185.078 101.791Z" fill="#D5DCB1"/>
<path d="M316.12 101.791C312.653 101.791 312.029 99.0584 311.924 98.1711L311.906 89.5873C312.135 86.6509 314.115 85.1088 317.216 85.2391H335.202V88.9324H317.117C315.662 88.8233 315.644 89.2071 315.598 89.7317L315.605 97.9528C315.648 97.9951 315.877 98.1429 316.691 98.0655L334.956 98.0584V101.752H316.874C316.606 101.776 316.356 101.791 316.12 101.791Z" fill="#D5DCB1"/>
<path d="M244.204 101.172H240.508V85.7577H244.204V101.172Z" fill="#444141"/>
<path d="M224.885 100.563H221.186V85.1485H224.885V100.563Z" fill="#444141"/>
<path d="M234.783 95.3159C234.085 95.3159 232.694 95.3159 223.036 95.3159V91.619C232.701 91.619 234.096 91.6261 234.794 91.6261L242.351 91.619L242.358 95.3159H234.783Z" fill="#D5DCB1"/>
<path d="M262.055 101.247L258.848 99.4198L266.892 85.4139C267.776 84.4668 268.685 84.3154 269.277 84.2978C269.866 84.3083 270.74 84.5231 271.554 85.4773L271.768 85.7871C276.599 94.5786 279.284 99.3986 279.284 99.3986L276.056 101.191C276.056 101.191 273.611 96.8003 269.182 88.7516L262.055 101.247Z" fill="#D5DCB1"/>
<path d="M263.572 96.7222L263.554 93.0288L274.614 92.969L274.632 96.6658L263.572 96.7222Z" fill="#D5DCB1"/>
<path d="M510.397 88.4299H489.018V84.7366H510.397V88.4299Z" fill="#D5DCB1"/>
<path d="M501.043 101.524L497.343 101.51C497.361 96.1547 497.361 96.1547 497.357 95.6547C497.354 95.1583 497.343 94.1619 497.343 86.7892H501.043C501.043 94.1443 501.05 95.1371 501.053 95.6301C501.057 96.1265 501.057 96.1265 501.043 101.524Z" fill="#D5DCB1"/>
<path d="M388.739 88.7095C388.003 88.7095 387.386 89.3292 387.386 90.065V96.9799C387.386 97.7158 388.003 98.3355 388.739 98.3355H401.311C402.047 98.3355 402.664 97.7158 402.664 96.9799V90.065C402.664 89.3292 402.047 88.7095 401.311 88.7095H388.739ZM401.311 102.029H388.739C385.952 102.029 383.687 99.7614 383.687 96.9799V90.065C383.687 87.2836 385.952 85.0161 388.739 85.0161H401.311C404.094 85.0161 406.363 87.2836 406.363 90.065V96.9799C406.363 99.7614 404.094 102.029 401.311 102.029Z" fill="#D5DCB1"/>
<path d="M424.646 100.485H420.95V88.1976H424.646V100.485Z" fill="#D5DCB1"/>
<path d="M433.201 100.957H433.152C431.957 100.939 430.956 100.168 430.174 98.6647C430.146 98.619 428.229 95.3763 425.301 88.5459C425.175 88.2431 424.928 87.6762 424.798 87.553C424.819 87.5706 424.674 87.7501 424.639 88.3135L420.954 88.0846C421.109 85.5989 422.596 83.9582 424.745 83.9124C427.239 83.754 428.18 85.8806 428.698 87.0882C431.009 92.4821 432.679 95.5875 433.215 96.5487C436.58 90.2288 437.964 87.0143 437.975 86.9756C438.62 85.5391 439.663 83.93 442.122 83.8984C443.133 83.7927 444.095 84.268 444.775 84.9616C445.265 85.4616 445.843 86.3489 445.8 87.7537L445.804 100.33H442.104V87.7009C441.851 87.5917 441.749 87.5952 441.357 88.4578C441.315 88.5635 439.878 91.9223 436.263 98.6823C435.41 100.203 434.385 100.957 433.201 100.957Z" fill="#D5DCB1"/>
<path d="M460.999 101.247L457.793 99.4198L465.837 85.4104C466.728 84.4597 467.577 84.2872 468.233 84.2978C468.821 84.3083 469.691 84.5266 470.502 85.4773L470.713 85.7871C475.544 94.5786 478.232 99.3986 478.232 99.3986L475.004 101.191C475.004 101.191 472.556 96.8003 468.123 88.7516L460.999 101.247Z" fill="#D5DCB1"/>
<path d="M462.52 96.7222L462.502 93.0288L473.558 92.969L473.58 96.6658L462.52 96.7222Z" fill="#D5DCB1"/>
<path d="M529.846 88.7095C529.113 88.7095 528.493 89.3292 528.493 90.065V96.9799C528.493 97.7158 529.113 98.3355 529.846 98.3355H542.42C543.157 98.3355 543.773 97.7158 543.773 96.9799V90.065C543.773 89.3292 543.157 88.7095 542.42 88.7095H529.846ZM542.42 102.029H529.846C527.062 102.029 524.797 99.7614 524.797 96.9799V90.065C524.797 87.2836 527.062 85.0161 529.846 85.0161H542.42C545.204 85.0161 547.469 87.2836 547.469 90.065V96.9799C547.469 99.7614 545.204 102.029 542.42 102.029Z" fill="#D5DCB1"/>
<path d="M604.992 88.7095C604.242 88.7095 603.636 89.3151 603.636 90.065V96.9799C603.636 97.7264 604.242 98.3355 604.992 98.3355H617.56C618.311 98.3355 618.913 97.7264 618.913 96.9799V90.065C618.913 89.3151 618.311 88.7095 617.56 88.7095H604.992ZM617.56 102.029H604.992C602.209 102.029 599.936 99.7614 599.936 96.9799V90.065C599.936 87.2836 602.209 85.0161 604.992 85.0161H617.56C620.344 85.0161 622.613 87.2836 622.613 90.065V96.9799C622.613 99.7614 620.344 102.029 617.56 102.029Z" fill="#D5DCB1"/>
<path d="M567.02 100.35H563.32L563.366 88.0654C563.814 85.9388 565.385 84.6044 567.679 84.3967L586.645 84.3862V100.276H582.949V88.0795H567.844C567.238 88.1394 567.094 88.3682 567.02 88.6534V100.35Z" fill="#D5DCB1"/>
<path d="M642.008 100.426H638.312V88.8279C638.464 87.2295 638.999 86.145 639.905 85.4162C640.842 84.6663 642.079 84.3776 643.583 84.5501L660.626 84.5395V88.2329H643.368C642.579 88.1484 642.294 88.2364 642.22 88.2927C642.16 88.3456 642.044 88.5462 641.998 89.011L642.008 100.426Z" fill="#D5DCB1"/>
<path d="M677.591 100.426H673.895V84.2473H677.591V100.426Z" fill="#D5DCB1"/>
<path d="M696.197 100.328L696.046 95.1379C696.268 92.1206 698.561 90.2686 701.891 90.2228C711.837 90.2228 717.013 90.0362 717.063 90.0362L717.204 93.7261C717.147 93.7261 711.915 93.9197 701.919 93.9197C701.155 93.9268 699.816 94.1098 699.731 95.2295L699.89 100.218L696.197 100.328Z" fill="#D5DCB1"/>
<path d="M369.988 88.6377H348.608V84.9443H369.988V88.6377Z" fill="#D5DCB1"/>
<path d="M360.841 101.524L357.142 101.51C357.159 96.1547 357.159 96.1547 357.156 95.6547C357.152 95.1583 357.142 94.1619 357.142 86.7892H360.841C360.841 94.1443 360.845 95.1371 360.848 95.6301C360.852 96.1265 360.852 96.1265 360.841 101.524Z" fill="#D5DCB1"/>
<path d="M244.204 101.172H240.508V85.7577H244.204V101.172Z" fill="#D5DCB1"/>
<path d="M224.885 100.563H221.186V85.1485H224.885V100.563Z" fill="#D5DCB1"/>
<path d="M719.134 99.968H715.438V87.624L700.22 87.6275C699.501 87.6451 699.491 87.7261 699.431 88.2612C699.417 88.6415 699.417 88.9549 699.42 89.1696L699.438 89.5393C699.456 89.8632 700.315 90.1801 701.439 90.2716L701.129 93.9544C696.552 93.5671 695.841 90.9829 695.756 89.8034C695.696 89.3351 695.717 88.7506 695.749 87.9866C696.027 85.4305 697.634 84.001 700.167 83.9341L719.134 83.9271V99.968Z" fill="#D5DCB1"/>
<path fill-rule="evenodd" clip-rule="evenodd" d="M63.833 1.62551L15.57 1.50229C9.8128 3.23101 5.73979 7.9947 3.35096 15.7863C-0.306295 26.0777 -0.0596613 36.6191 4.08734 47.4104C5.96177 51.0122 9.22088 53.9768 13.8611 56.3005H68.7199C72.6097 52.3854 72.814 47.8365 69.333 42.6467C34.3072 42.7277 16.7926 42.77 16.7926 42.77C12.3003 40.6293 10.2638 35.4185 10.6866 27.1445C11.4758 19.8881 13.6744 15.7793 17.2823 14.811H64.1994C65.4714 16.9763 65.5136 19.543 64.3227 22.5041H23.1487C19.2378 26.715 19.2378 31.0702 23.1487 35.5663H63.9563C69.7311 33.6334 72.5815 27.9367 72.5075 18.4727C72.7577 8.99814 69.865 3.38593 63.833 1.62551Z" fill="#D5DCB1"/>
<path d="M13.945 55.9473H68.5712C72.2249 52.2047 72.4117 47.9621 69.1455 43.0012L16.7144 43.1209L16.6439 43.0857C12.0318 40.8887 9.90722 35.5195 10.3335 27.1223C11.1404 19.725 13.4447 15.4754 17.1935 14.4684L17.2816 14.4578H64.4454V14.6656L64.5052 14.6339C65.8265 16.8872 65.8758 19.5807 64.6462 22.6367L64.5581 22.855H23.303C19.6388 26.8758 19.6423 30.9213 23.3066 35.2132H63.8992C69.4485 33.326 72.2285 27.6962 72.1545 18.4751C72.3976 9.23997 69.5824 3.69114 63.783 1.97649L15.6221 1.85326C10.0376 3.55383 6.02095 8.27526 3.68849 15.8908C0.069993 26.066 0.316629 36.6215 4.4143 47.2826C6.22178 50.7506 9.43509 53.6729 13.945 55.9473ZM68.8672 56.655L13.7054 56.6163C9.01933 54.2679 5.67566 51.2259 3.77305 47.5713C-0.402138 36.713 -0.648773 25.9956 3.02257 15.669C5.42903 7.81051 9.61831 2.9236 15.4706 1.16318L15.5728 1.15262L63.9309 1.28641C70.1074 3.08556 73.1093 8.87029 72.8591 18.4822C72.9367 28.0588 69.977 33.9245 64.0684 35.9032L63.9556 35.9208H22.9859L22.8802 35.7976C18.853 31.1642 18.8566 26.6082 22.8908 22.2635L22.993 22.1509H64.0789C65.1077 19.4821 65.076 17.1302 63.9944 15.162H17.3309C13.9168 16.1091 11.8028 20.151 11.0347 27.1786C10.626 35.1991 12.592 40.3324 16.8729 42.4168L69.519 42.2971L69.6247 42.452C73.1974 47.772 72.9754 52.5181 68.9693 56.5494L68.8672 56.655Z" fill="white"/>
<path fill-rule="evenodd" clip-rule="evenodd" d="M283.759 1.62551C251.587 1.54453 235.496 1.50229 235.496 1.50229C229.739 3.23101 225.666 7.9947 223.277 15.7863C219.62 26.0777 219.866 36.6191 224.013 47.4104C225.891 51.0122 229.147 53.9768 233.787 56.3005H288.646C292.539 52.3854 292.74 47.8365 289.259 42.6467C254.233 42.7277 236.719 42.77 236.719 42.77C232.226 40.6293 230.19 35.4185 230.613 27.1445C231.402 19.8881 233.601 15.7793 237.208 14.811H284.126C285.398 16.9763 285.44 19.543 284.249 22.5041H243.075C239.164 26.715 239.164 31.0702 243.075 35.5663H283.882C289.657 33.6334 292.508 27.9367 292.434 18.4727C292.684 8.99814 289.791 3.38593 283.759 1.62551Z" fill="#D5DCB1"/>
<path d="M233.871 55.9473H288.501C292.151 52.2012 292.338 47.9621 289.068 43.0012L236.64 43.1209L236.566 43.0857C231.954 40.8887 229.833 35.5195 230.26 27.1223C231.067 19.725 233.371 15.4754 237.116 14.4684L237.208 14.4578H284.371V14.6656L284.431 14.6339C285.753 16.8872 285.802 19.5771 284.576 22.6332L284.488 22.855H243.229C239.565 26.8758 239.565 30.9213 243.236 35.2132H283.825C289.378 33.326 292.155 27.6962 292.081 18.4751C292.324 9.23997 289.509 3.69466 283.709 1.97649L235.548 1.85326C229.96 3.55383 225.947 8.27526 223.615 15.8908C219.996 26.066 220.243 36.6215 224.34 47.2826C226.148 50.7506 229.361 53.6764 233.871 55.9473ZM288.793 56.655L233.628 56.6163C228.945 54.2679 225.605 51.2259 223.703 47.5713C219.524 36.7166 219.274 25.9956 222.949 15.669C225.355 7.81051 229.544 2.9236 235.397 1.16318L235.495 1.15262L283.857 1.28641C290.034 3.08556 293.039 8.87029 292.789 18.4822C292.863 28.0588 289.903 33.9245 283.994 35.9032L283.882 35.9208H242.912L242.81 35.7976C238.779 31.1642 238.783 26.6082 242.817 22.2635L242.919 22.1509H284.009C285.03 19.4786 285.002 17.1302 283.924 15.162H237.257C233.846 16.1056 231.725 20.151 230.961 27.1786C230.552 35.1991 232.515 40.3324 236.799 42.4168L289.442 42.2971L289.551 42.452C293.12 47.772 292.902 52.5181 288.895 56.5494L288.793 56.655Z" fill="white"/>
<path fill-rule="evenodd" clip-rule="evenodd" d="M494.887 1.62551C462.712 1.54453 446.628 1.50229 446.628 1.50229C439.489 4.6816 436.794 8.01583 433.951 15.7863C430.188 26.0636 430.839 36.6156 435.141 47.4104C437.016 51.0122 440.275 53.9768 444.915 56.3005H499.778C503.664 52.3854 503.872 47.8365 500.387 42.6467C465.361 42.7277 447.847 42.77 447.847 42.77C443.354 40.6293 441.318 35.4185 441.741 27.1445C442.53 19.8881 444.732 15.7793 448.336 14.811H495.254C496.529 16.9763 496.571 19.543 495.377 22.5041H454.203C450.292 26.715 450.292 31.0702 454.203 35.5663H495.01C500.785 33.6334 503.636 27.9367 503.565 18.4727C503.812 8.99814 500.919 3.38593 494.887 1.62551Z" fill="#E4E7D1"/>
<path d="M445 55.9473H499.629C503.279 52.2012 503.47 47.9621 500.2 43.0012L447.765 43.1209L447.695 43.0857C443.083 40.8887 440.962 35.5195 441.392 27.1223C442.191 19.725 444.499 15.4754 448.245 14.4684L448.336 14.4578H495.5V14.6656L495.56 14.6339C496.885 16.8907 496.93 19.5807 495.704 22.6367L495.613 22.855H454.354C450.693 26.8758 450.697 30.9213 454.361 35.2132H494.954C500.507 33.326 503.283 27.6962 503.209 18.4751C503.452 9.23997 500.637 3.69466 494.841 1.97649L446.698 1.85326C439.954 4.87414 437.16 8.03937 434.278 15.9084C430.684 25.728 431.086 36.2835 435.469 47.2791C437.28 50.7471 440.49 53.6729 445 55.9473ZM499.925 56.655L444.76 56.6163C440.074 54.2679 436.73 51.2224 434.828 47.5713C430.367 36.3786 429.962 25.6541 433.619 15.669C436.593 7.55349 439.478 4.30376 446.483 1.18078L446.624 1.15262L494.989 1.28641C501.162 3.08556 504.167 8.87029 503.917 18.4822C503.988 28.0588 501.028 33.9245 495.123 35.9032L495.01 35.9208H454.04L453.931 35.7976C449.911 31.1642 449.915 26.6082 453.942 22.2635L454.048 22.1509H495.137C496.162 19.4821 496.134 17.1337 495.052 15.162H448.385C444.971 16.1091 442.857 20.151 442.093 27.1786C441.684 35.1991 443.647 40.3289 447.927 42.4168L500.574 42.2971L500.683 42.452C504.252 47.772 504.033 52.5181 500.024 56.5494L499.925 56.655Z" fill="white"/>
<path fill-rule="evenodd" clip-rule="evenodd" d="M137.853 6.72611C137.511 3.38132 136.296 2.02932 133.399 1.32163C107.682 1.64555 95.4104 1.37797 95.5478 1.40613C89.7907 3.67707 85.922 7.94784 83.9384 16.0634C81.6552 26.2527 81.6552 35.5723 83.9384 44.0258C85.7881 50.9231 89.9422 55.0707 96.4005 56.479H153.215C156.798 52.2329 156.798 48.0818 153.215 44.0258H99.2121C94.2019 40.4522 91.8835 35.2026 92.25 28.2771C92.5248 20.1863 95.0511 15.4261 99.8252 13.9896H133.544C136.486 13.5636 137.913 11.1835 137.853 6.72611Z" fill="#D5DCB1"/>
<path d="M95.6187 1.75613C89.6289 4.13973 86.1302 8.58302 84.2805 16.1493C82.0185 26.2259 82.0185 35.5773 84.2805 43.9322C86.0809 50.6605 90.1856 54.7658 96.4748 56.1354L153.049 56.1248C156.4 52.0829 156.4 48.2382 153.057 44.3758H99.0962L99.0081 44.3089C93.9169 40.6825 91.5245 35.2815 91.8945 28.2574C92.1799 20.0469 94.8118 15.1283 99.7234 13.653L99.822 13.6389H133.548C136.243 13.2446 137.554 10.9878 137.501 6.74515C137.18 3.65034 136.134 2.36171 133.357 1.67867C119.278 1.85119 106.911 1.87936 96.6017 1.76669C96.0696 1.75965 95.7138 1.75965 95.6187 1.75613ZM153.377 56.8325H96.4008C89.7558 55.396 85.4749 51.1182 83.5969 44.1188C81.3103 35.6477 81.3068 26.1837 83.5934 15.9873C85.4996 8.20277 89.1075 3.61513 95.2839 1.13294C95.3121 1.11534 95.3403 1.10126 95.3861 1.09422C95.3967 1.08717 95.4037 1.08365 95.4178 1.08013V1.08717C95.601 1.04844 95.9428 1.05548 96.6122 1.06253C106.922 1.17519 119.299 1.15055 133.396 0.970985H133.438L133.484 0.981544C136.578 1.73853 137.857 3.28417 138.202 6.69234V6.7205C138.265 11.3222 136.715 13.8854 133.597 14.3396H99.8749C95.3192 15.7409 92.8704 20.4341 92.5991 28.2891C92.2433 35.021 94.5088 40.1931 99.3252 43.6716H153.374L153.479 43.7914C157.182 47.9811 157.182 52.3259 153.486 56.7058L153.377 56.8325Z" fill="#D5DCB1"/>
<path fill-rule="evenodd" clip-rule="evenodd" d="M147.881 7.64571C147.814 4.23403 148.867 2.18842 151.034 1.5089H214.338C215.751 2.54755 216.643 4.65301 216.801 7.43095C216.903 10.7229 215.794 13.0079 214.201 14.2402C195.192 14.4409 198.864 14.3846 185.76 14.5149C185.817 40.8859 185.799 32.1613 185.76 56.2896H177.998V14.6064H150.019C148.501 12.7932 147.789 10.4765 147.881 7.64571Z" fill="#D5DCB1"/>
<path d="M178.352 55.9387H185.413L185.434 43.7284C185.452 34.5989 185.452 34.5989 185.413 16.2272L185.41 14.1675L185.759 14.164C191.075 14.1112 193.63 14.0865 196.057 14.0654C199.602 14.0372 202.875 14.0055 214.076 13.8893C215.7 12.5831 216.539 10.2981 216.447 7.4427C216.303 4.84784 215.51 2.86914 214.22 1.86218H151.089C149.105 2.51001 148.171 4.39718 148.235 7.63987V7.65747C148.147 10.3192 148.806 12.5373 150.187 14.2555H178.352V55.9387ZM186.111 56.6428H177.644V14.9562H149.856L149.75 14.8294C148.185 12.9634 147.439 10.5446 147.527 7.64339C147.463 4.07678 148.608 1.90091 150.927 1.17562L151.032 1.15801H214.453L214.544 1.22843C216.063 2.33749 216.99 4.53449 217.152 7.41101C217.254 10.5586 216.281 13.0796 214.418 14.5161L214.323 14.59H214.203C202.91 14.7097 199.623 14.7379 196.064 14.7696C193.693 14.7907 191.199 14.8118 186.114 14.8611L186.118 16.2272C186.157 34.5989 186.157 34.5989 186.136 43.7319L186.111 56.6428Z" fill="#D5DCB1"/>
<path fill-rule="evenodd" clip-rule="evenodd" d="M593.6 7.64571C593.533 4.23403 594.583 2.18842 596.753 1.5089H660.054C661.467 2.54755 662.362 4.65301 662.517 7.43095C662.622 10.7229 661.513 13.0079 659.92 14.2402C640.908 14.4409 644.583 14.3846 631.479 14.5149C631.536 40.8859 631.518 32.1613 631.479 56.2896H623.717V14.6064H595.735C594.22 12.7932 593.508 10.4765 593.6 7.64571Z" fill="#E4E7D1"/>
<path d="M624.072 55.9387H631.132L631.154 43.7284C631.171 34.5989 631.171 34.5989 631.136 16.2272L631.129 14.1675L631.478 14.164C636.794 14.1112 639.349 14.0865 641.776 14.0654C645.321 14.0372 648.594 14.0055 659.795 13.8893C661.419 12.5796 662.258 10.2981 662.163 7.4427C662.022 4.89009 661.211 2.86209 659.939 1.86218H596.808C594.824 2.51001 593.894 4.39718 593.95 7.63987V7.65747C593.862 10.3157 594.521 12.5338 595.902 14.2555H624.072V55.9387ZM631.83 56.6428H623.363V14.9562H595.571L595.465 14.8294C593.901 12.9598 593.154 10.541 593.246 7.64339C593.179 4.07678 594.327 1.90091 596.646 1.17562L596.751 1.15801H660.172L660.26 1.22843C661.782 2.34101 662.709 4.53801 662.867 7.41101C662.969 10.5586 662.001 13.0796 660.133 14.5161L660.042 14.59H659.922C648.629 14.7097 645.339 14.7379 641.784 14.7696C639.412 14.7907 636.918 14.8118 631.834 14.8611L631.837 16.2272C631.876 34.5989 631.876 34.5989 631.855 43.7319L631.83 56.6428Z" fill="white"/>
<path fill-rule="evenodd" clip-rule="evenodd" d="M301.508 9.05568C301.311 5.90101 302.269 3.66176 304.38 2.33793H367.057C368.71 3.26391 369.538 5.36233 369.538 8.62614C369.671 11.4745 368.984 13.5518 367.49 14.8545H304.073C302.329 14.0236 301.473 12.0906 301.508 9.05568Z" fill="#A7A5A6"/>
<path d="M304.156 14.5054H367.354C368.693 13.2731 369.31 11.3015 369.183 8.64322C369.183 5.56601 368.44 3.57322 366.967 2.69301H304.48C302.528 3.95347 301.668 6.03076 301.855 9.03403L301.859 9.05868C301.827 11.9282 302.577 13.7097 304.156 14.5054ZM367.615 15.2061L303.923 15.1744C302.052 14.2801 301.126 12.2274 301.15 9.06572C300.953 5.79135 301.975 3.42887 304.191 2.04166L304.279 1.98885H367.15L367.235 2.03462C368.996 3.02397 369.891 5.2421 369.888 8.62914C370.025 11.5585 369.299 13.7484 367.721 15.1216L367.615 15.2061Z" fill="white"/>
<path fill-rule="evenodd" clip-rule="evenodd" d="M331.364 20.4417C338.693 20.3678 333.725 20.4135 339.122 20.3642V43.6862C339.929 50.5237 342.864 54.5938 347.92 55.893C347.92 55.893 346.617 55.893 344.009 55.8965C336.071 55.3191 331.857 51.3933 331.364 44.1123V20.4417Z" fill="#D5DCB1"/>
<path d="M331.717 20.7888V44.1143C332.199 51.2299 336.23 54.976 344.034 55.5464H345.859C341.864 53.7226 339.486 49.7582 338.774 43.727L338.77 20.7183L331.717 20.7888ZM350.697 56.2471H344.01C335.881 55.6591 331.516 51.582 331.016 44.1354L331.012 20.0916L339.479 20.0107V43.6847C340.257 50.2898 343.129 54.3 348.009 55.5535L350.697 56.2471Z" fill="white"/>
<path fill-rule="evenodd" clip-rule="evenodd" d="M347.672 20.3402C342.006 20.3578 339.156 20.3684 339.156 20.3684C339.156 35.8319 339.208 43.3242 339.208 43.3242C340.11 51.2003 343.775 55.4112 350.205 55.9604H409.524V33.3109C412.678 33.3497 414.252 33.3708 414.252 33.3708C415.317 33.4236 415.877 34.1559 415.937 35.5713C416.166 49.0631 416.275 55.8091 416.275 55.8091H423.424V33.832C423.114 29.4803 422.155 26.3045 420.552 24.3082C418.833 21.5302 416.166 19.9846 412.551 19.6677H410.169V5.32383C409.693 3.17612 408.411 2.01777 406.318 1.84172C404.281 2.02481 403.101 3.18316 402.777 5.32383V19.7909H386.647C384.033 20.8261 382.81 23.1076 382.983 26.6284C383.025 30.3886 384.47 32.649 387.316 33.406H402.347V43.1728H351.276C349.003 43.127 347.805 42.1306 347.672 40.1801V20.3402Z" fill="#E4E7D1"/>
<path d="M339.507 20.7166C339.507 35.7717 339.556 43.25 339.56 43.3204C340.444 51.0416 343.936 55.0729 350.232 55.6116L409.171 55.6081V32.9586L414.255 33.0184C415.143 33.0607 416.203 33.536 416.288 35.5534L416.623 55.4567H423.07L423.074 33.8317C422.767 29.5997 421.827 26.4591 420.28 24.5297C418.603 21.8292 415.999 20.3223 412.518 20.0195H409.816V5.32003C409.382 3.40469 408.226 2.35548 406.292 2.19353C404.478 2.36253 403.424 3.40118 403.121 5.37637L403.128 20.1427H386.716C384.278 21.1391 383.168 23.2516 383.334 26.6105C383.376 30.2194 384.694 32.3248 387.365 33.0501H402.698V43.5281H351.275C348.188 43.4647 347.424 41.6867 347.322 40.208L347.318 20.692L339.507 20.7166ZM409.879 56.3123H350.204C343.583 55.7524 339.778 51.3937 338.859 43.3662C338.855 43.2535 338.799 35.659 338.799 20.3681V20.0195L348.023 19.9843V40.1798C348.146 41.9332 349.178 42.7782 351.282 42.8204H401.994V33.7578L387.227 33.7472C384.222 32.948 382.672 30.5538 382.629 26.6316C382.453 22.9735 383.76 20.5582 386.516 19.4632L386.646 19.4386H402.423V5.32003C402.779 2.96107 404.079 1.69005 406.289 1.49288C408.603 1.67949 410.002 2.94347 410.513 5.24609L410.52 19.3189H412.55C416.295 19.6428 419.075 21.2588 420.851 24.1248C422.464 26.1352 423.458 29.4025 423.775 33.8071V56.1609H415.932L415.587 35.5781C415.52 33.969 414.787 33.7472 414.237 33.7191L409.879 33.6698V56.3123Z" fill="#D5DCB1"/>
<path fill-rule="evenodd" clip-rule="evenodd" d="M521.309 56.231C513.917 56.2134 521.207 56.231 513.614 56.2169V1.57354H521.07C521.147 15.3259 521.189 22.2056 521.189 22.2056H575.558V1.93971H583.5V56.0936H575.685C575.52 42.5772 575.439 35.8207 575.439 35.8207H521.249C521.292 48.8407 521.309 56.231 521.309 56.231Z" fill="#E4E7D1"/>
<path d="M517.579 55.8683C517.703 55.8683 518.214 55.8718 520.958 55.8788C520.955 54.2663 520.934 47.1929 520.895 35.8171V35.4651H575.789L575.792 35.8171L576.028 55.7415H583.149V2.28824H575.916V22.5577H520.842L520.838 22.2056L520.719 1.92208H513.968V55.8648C517.371 55.8683 517.481 55.8718 517.534 55.8718C517.544 55.8718 517.551 55.8683 517.579 55.8683ZM521.663 56.583H521.314C517.583 56.576 517.6 56.5795 517.541 56.576C517.488 56.576 517.424 56.5724 513.616 56.5689L513.26 56.5654V1.22143H521.416L521.42 1.56999L521.54 21.8535H575.207V1.5876H583.857V56.4492H575.338L575.331 56.0971L575.091 36.1727H521.607C521.645 48.9745 521.663 56.2309 521.663 56.2309V56.583Z" fill="white"/>
<path fill-rule="evenodd" clip-rule="evenodd" d="M679.712 16.7782C679.579 15.7255 679.984 15.1903 680.935 15.1762H732.249C733.785 17.1831 734.254 19.4751 734.392 22.0454C734.543 24.9993 733.969 27.5731 731.943 29.8264H692.999C690.751 30.4214 689.684 32.4001 689.789 35.7766C689.719 38.8397 690.737 40.8466 692.848 41.8078H732.175C736.689 41.2409 740.022 38.5123 742.217 33.988C743.929 30.4531 744.208 26.8619 744.201 22.0031C744.06 16.5564 742.456 12.3032 740.649 9.22248C738.38 5.35661 735.596 2.81104 731.869 1.82169C697.861 1.87098 680.858 1.89563 680.858 1.89563C678.296 2.33221 675.939 4.66652 674.653 6.83888C673.039 9.56752 672.384 11.5533 672.38 15.0988C672.363 44.6737 672.38 15.0988 672.38 55.9827H679.712V16.7782Z" fill="#E4E7D1"/>
<path d="M672.734 55.6279H679.358V16.8001C679.281 16.1558 679.39 15.6523 679.686 15.3108C679.957 14.9939 680.38 14.832 680.926 14.8249H732.424L732.533 14.9622C734.274 17.2437 734.622 19.8139 734.742 22.0285C734.911 25.3874 734.108 27.9436 732.205 30.0631L732.103 30.1793H693.05C690.993 30.7426 690.038 32.5699 690.143 35.7633C690.076 38.6856 690.989 40.5411 692.923 41.453H732.174C736.423 40.9213 739.71 38.3547 741.898 33.8339C743.543 30.4433 743.854 27.0598 743.85 22.0039C743.727 17.4057 742.55 13.1631 740.348 9.39932C738.033 5.45599 735.246 3.09351 731.825 2.17105L680.859 2.24851C678.34 2.68157 676.096 5.08982 674.958 7.01572C673.485 9.51199 672.734 11.4484 672.734 15.0996C672.727 29.8835 672.727 29.8835 672.727 31.2989C672.731 32.7072 672.734 35.5028 672.734 55.6279ZM680.063 56.332H672.03V55.9799C672.03 35.538 672.026 32.7143 672.023 31.2989C672.019 29.8835 672.019 29.8835 672.03 15.0996C672.03 11.6843 672.597 9.63169 674.352 6.66011C675.567 4.60043 677.981 2.0267 680.803 1.55138L731.913 1.47041L731.959 1.48097C735.588 2.44567 738.533 4.9173 740.954 9.04372C743.219 12.9096 744.431 17.2684 744.555 21.9969C744.558 27.0422 744.227 30.644 742.536 34.1402C740.232 38.8933 736.761 41.5903 732.219 42.1536L692.772 42.1572L692.701 42.129C690.464 41.1079 689.365 38.9743 689.435 35.7668C689.326 32.246 690.492 30.1229 692.913 29.4892L693.001 29.4751H731.786C733.505 27.4999 734.2 25.2079 734.037 22.0602C733.886 19.1591 733.298 17.1909 732.078 15.5256H680.93C680.595 15.5326 680.355 15.6136 680.215 15.7756C680.052 15.9586 680.003 16.2826 680.06 16.7332L680.063 16.779V56.332Z" fill="white"/>
<path fill-rule="evenodd" clip-rule="evenodd" d="M301.508 9.05568C301.311 5.90101 302.269 3.66176 304.38 2.33793H367.057C368.71 3.26391 369.538 5.36233 369.538 8.62614C369.671 11.4745 368.984 13.5518 367.49 14.8545H304.073C302.329 14.0236 301.473 12.0906 301.508 9.05568Z" fill="#D5DCB1"/>
<path d="M304.156 14.5054H367.354C368.693 13.2731 369.31 11.3015 369.183 8.64322C369.183 5.56601 368.44 3.57322 366.967 2.69301H304.48C302.528 3.95347 301.668 6.03076 301.855 9.03403L301.859 9.05868C301.827 11.9282 302.577 13.7097 304.156 14.5054ZM367.615 15.2061L303.923 15.1744C302.052 14.2801 301.126 12.2274 301.15 9.06572C300.953 5.79135 301.975 3.42887 304.191 2.04166L304.279 1.98885H367.15L367.235 2.03462C368.996 3.02397 369.891 5.2421 369.888 8.62914C370.025 11.5585 369.299 13.7484 367.721 15.1216L367.615 15.2061Z" fill="#D5DCB1"/>
</svg>
